<?xml version="1.0" standalone="no"?>
<!DOCTYPE svg PUBLIC "-//W3C//DTD SVG 20010904//EN"
 "http://www.w3.org/TR/2001/REC-SVG-20010904/DTD/svg10.dtd">
<svg version="1.0" xmlns="http://www.w3.org/2000/svg"
 width="512.000000pt" height="512.000000pt" viewBox="0 0 512.000000 512.000000"
 preserveAspectRatio="xMidYMid meet">

<g transform="translate(0.000000,512.000000) scale(0.100000,-0.100000)"
fill="#000000" stroke="none">
<path d="M626 4461 c-16 -17 10 -125 469 -1987 267 -1083 491 -1980 498 -1994
7 -14 22 -26 33 -28 16 -2 381 343 1495 1415 847 815 1475 1427 1477 1438 1
11 -2 26 -6 33 -5 7 -384 121 -843 253 -829 239 -1523 438 -2551 734 -296 85
-542 155 -546 155 -5 0 -16 -8 -26 -19z m509 -212 c215 -61 395 -114 401 -118
10 -6 -571 -576 -598 -586 -10 -4 -37 91 -112 397 -54 222 -101 409 -103 416
-3 7 0 10 8 8 8 -3 190 -55 404 -117z m997 -286 c208 -59 378 -111 378 -115 0
-8 -592 -578 -600 -578 -6 0 -201 784 -200 804 0 10 -29 18 422 -111z m-414
-310 c55 -225 99 -409 98 -410 -3 -3 -798 226 -804 232 -3 2 74 80 169 172 96
92 230 223 299 290 69 68 128 123 131 123 3 0 51 -183 107 -407z m1762 -81 c3
-2 -48 -54 -112 -116 -64 -61 -202 -193 -305 -293 l-189 -182 -99 397 c-54
218 -100 404 -103 414 -3 13 78 -7 400 -100 221 -63 405 -117 408 -120z m-796
-201 c54 -216 95 -396 92 -398 -9 -9 -796 221 -793 231 6 18 592 575 598 568
4 -4 50 -184 103 -401z m1421 24 c187 -54 344 -101 348 -105 8 -7 -588 -590
-602 -590 -4 0 -51 179 -105 398 -54 218 -100 405 -102 414 -5 16 -1 16 58 -1
35 -10 216 -62 403 -116z m-450 -303 c53 -216 95 -396 93 -400 -2 -4 -185 44
-406 108 l-404 117 303 292 c166 160 305 288 309 284 4 -4 51 -185 105 -401z
m-2267 178 c221 -63 401 -118 399 -121 -8 -20 -611 -589 -617 -582 -4 4 -47
168 -94 363 -48 195 -93 379 -101 408 -11 42 -11 53 -1 50 7 -2 194 -55 414
-118z m986 -283 l390 -111 -150 -143 c-426 -410 -464 -445 -469 -432 -8 24
-195 788 -195 800 0 6 7 8 18 4 9 -3 192 -56 406 -118z m-510 76 c30 -108 197
-805 194 -809 -8 -7 -819 229 -816 238 4 11 602 587 610 587 4 1 9 -7 12 -16z
m1459 -351 c225 -64 407 -121 406 -127 -3 -13 -597 -585 -607 -585 -4 0 -52
181 -106 403 -54 221 -101 408 -103 415 -3 6 -4 12 -2 12 2 0 188 -53 412
-118z m-396 -324 c56 -227 100 -414 99 -415 -5 -6 -816 232 -816 238 0 9 601
589 610 589 3 0 51 -186 107 -412z m-1249 -124 c188 -54 342 -101 341 -104 -1
-3 -136 -135 -302 -294 -259 -249 -302 -287 -309 -270 -8 19 -198 782 -198
796 0 4 28 -1 63 -11 34 -10 216 -63 405 -117z m522 -564 c54 -222 97 -406 95
-408 -7 -7 -805 222 -802 230 3 9 601 586 604 584 2 -1 48 -184 103 -406z
m398 299 c213 -61 391 -115 395 -119 4 -4 -23 -35 -60 -70 -37 -35 -173 -164
-301 -288 -128 -124 -234 -223 -237 -220 -2 2 -47 177 -100 389 -53 211 -98
392 -101 402 -3 9 0 17 6 17 7 0 186 -50 398 -111z m-725 -686 c224 -65 407
-120 407 -124 0 -7 -607 -592 -619 -597 -5 -2 -212 809 -211 831 0 4 3 7 8 7
4 0 190 -53 415 -117z"/>
</g>
</svg>
