<svg xmlns="http://www.w3.org/2000/svg" viewBox="0 0 448 512" fill="currentColor"><title>TypeScript icon</title><path d="M448 96c0-35.3-28.7-64-64-64H64C28.7 32 0 60.7 0 96V416c0 35.3 28.7 64 64 64H384c35.3 0 64-28.7 64-64V96zM337 220c11.4 2.9 20.1 8.1 28.1 16.5 4.1 4.5 10.3 12.7 10.8 14.8.2.6-19.4 13.9-31.2 21.5-.4.3-2.2-1.6-4.1-4.5-5.8-8.6-11.8-12.3-21.1-13-13.6-.9-22.4 6.4-22.3 18.5.1 1.7.6 3.3 1.9 8.6 3 6.4 8.6 10.1 26 17.9 32.2 14.1 45.9 23.4 54.5 36.7 9.6 14.9 11.7 38.4 5.2 56-7.1 19.1-24.8 32-49.7 36.4-7.7 1.4-25.9 1.2-34.2-.3-18-3.3-35.1-12.4-45.7-24.3-4.1-4.6-12.2-16.9-11.7-17.7.2-.3 2.1-1.4 4.2-2.7 2-1.1 9.5-5.6 16.7-9.9l12.9-7.7 2.7 4.1c3.8 5.9 12 14 17 16.7 14.3 7.7 34 6.7 43.7-2.3 3.2-3 5.2-7 5.9-13.7 0-5.3-.7-7.7-3.4-11.8-3.5-5.1-10.6-9.4-30.9-18.4-23.2-10.2-33.1-16.6-42.4-26.6-5.5-5.9-9.8-12.5-12.3-23-1.7-6.5-2.1-22.7-.8-29.3 4.8-22.9 21.6-38.9 46-43.6 7.9-1.5 26.3-.9 34.1 1zm-101.5 19.3l.2 18.8h-62.4v169.8h-41.5V258.1H69.5v-18.4c0-10.2.2-18.7.5-18.9.2-.3 35.8-.4 78.9-.4l78.5.2.2 18.7z"/></svg>